<svg xmlns="http://www.w3.org/2000/svg" viewBox="0 0 58.9 5.8"><defs><style>.cls-1{fill:#fff;}.cls-2{opacity:0.8;}</style></defs><title>logo-engineer-text-white</title><g id="レイヤー_2" data-name="レイヤー 2"><g id="レイヤー_1-2" data-name="レイヤー 1"><path class="cls-1" d="M36.85,2.4h1.81l.32,0v.46l-.32,0H38V4.18h.88a1.51,1.51,0,0,0,.32,0v.49a1.83,1.83,0,0,0-.32,0H36.65a1.88,1.88,0,0,0-.33,0V4.15l.33,0h.85V2.82h-.65l-.31,0V2.38Z"/><path class="cls-1" d="M41,4a3.08,3.08,0,0,0,1.21-1.29l.26.47a3.53,3.53,0,0,1-1.23,1.23A3.73,3.73,0,0,1,40,4.83l-.28-.44A3.26,3.26,0,0,0,41,4Zm0-1.07-.34.35a6.61,6.61,0,0,0-.83-.72l.31-.34A7.37,7.37,0,0,1,41,2.88Z"/><path class="cls-1" d="M43.86,3.31l-.24.37c-.19-.13-.54-.35-.76-.47l.24-.37C43.32,3,43.69,3.19,43.86,3.31Zm.27.76a3.38,3.38,0,0,0,1.29-1.25l.26.46a4,4,0,0,1-1.32,1.19,4,4,0,0,1-1.12.41L43,4.45A3.77,3.77,0,0,0,44.13,4.07Zm.24-1.51-.25.37a8.82,8.82,0,0,0-.75-.48l.24-.37C43.83,2.2,44.2,2.44,44.37,2.56Zm1,.1-.29.13a3.31,3.31,0,0,0-.29-.53l.28-.11C45.15,2.29,45.28,2.51,45.36,2.66Zm.47-.18-.29.13a3.14,3.14,0,0,0-.31-.51L45.51,2A3.74,3.74,0,0,1,45.83,2.48Z"/><path class="cls-1" d="M46.54,4.09h1.91l.37,0v.51l-.37,0H46.54l-.41,0V4.07Zm.25-1.63h1.38l.37,0v.49l-.37,0H46.8l-.39,0V2.44A2.48,2.48,0,0,0,46.79,2.46Z"/><path class="cls-1" d="M51.9,2.62a3.34,3.34,0,0,1-.8.91l-.35-.27a2,2,0,0,0,.62-.62H49.63l-.4,0V2.2a2.5,2.5,0,0,0,.4,0h1.8a1.79,1.79,0,0,0,.34,0l.26.25A1.09,1.09,0,0,0,51.9,2.62ZM49.75,4.89l-.39-.32a1.06,1.06,0,0,0,.35-.18,1.24,1.24,0,0,0,.5-1.19,1.56,1.56,0,0,0,0-.3h.48C50.67,3.72,50.65,4.4,49.75,4.89Z"/><path class="cls-1" d="M53.16,4.46V5H52.8V4.46h-.59V4.12h.59v-.2h-.48V2.72h.48V2.54h-.55V2.2h.55V1.89h.37V2.2h.53v.34h-.53v.18h.49v1.2h-.5v.2h.56v.34ZM52.63,3.2h.21V3h-.21Zm0,.45h.21v-.2h-.21ZM53.35,3h-.22v.2h.22Zm0,.45h-.22v.2h.22ZM55,5a1.42,1.42,0,0,0,0-.2l-1.23.12-.07-.39h.28a10.62,10.62,0,0,0,.2-1.09h-.4V3.05H55.3v.37h-.75c-.07.36-.16.76-.24,1.06l.53,0a4.18,4.18,0,0,0-.21-.53L55,3.78a3.78,3.78,0,0,1,.38,1.06Zm.2-2.5H53.86V2.11h1.32Z"/><path class="cls-1" d="M58.82,3.42a3.18,3.18,0,0,1-.36.86c0,.16.06.25.1.25s.07-.15.08-.42a1,1,0,0,0,.26.22c-.08.54-.24.66-.35.66s-.26-.14-.34-.38a2.32,2.32,0,0,1-.44.39,1.38,1.38,0,0,0-.23-.26,1.46,1.46,0,0,0,.24-.17h-.5v.2H57V3.37h.91v1.1a1.38,1.38,0,0,0,.22-.26c0-.27-.07-.6-.09-1H56.86V2.92h.21A1.93,1.93,0,0,0,57,2.53l.2,0h-.27V2.36H56.8V5h-.33V4.42l-.68.14-.06-.36.19,0V2.36h-.13V2h1.15v.18h.32v-.3h.34v.3h.34v.29h-.29l.23,0c-.05.15-.1.3-.14.4H58c0-.31,0-.66,0-1h.35v.25L58.55,2a1.92,1.92,0,0,1,.32.53l-.27.16a2.35,2.35,0,0,0-.26-.49c0,.25,0,.48,0,.7h.51v.31h-.5c0,.18,0,.34,0,.49a2.29,2.29,0,0,0,.12-.37ZM56.47,2.36h-.22v.36h.22Zm0,.67h-.22v.36h.22Zm0,1.05V3.71h-.22v.41Zm.78-1.6a1.29,1.29,0,0,1,.08.41l-.14,0h.47l-.17,0c0-.12.07-.29.09-.41Zm0,1.17v.2h.31v-.2Zm.31.65V4.1h-.31v.2Z"/><polyline class="cls-1" points="7.73 1.68 8.69 1.68 8.69 5.76 9.41 5.76 9.41 1.68 10.37 1.68 10.37 1.04 7.73 1.04 7.73 1.68"/><polyline class="cls-1" points="11.28 5.76 13.42 5.76 13.42 5.09 11.99 5.09 11.99 3.58 13.23 3.58 13.23 2.94 11.99 2.94 11.99 1.68 13.42 1.68 13.42 1.04 11.28 1.04 11.28 5.76"/><path class="cls-1" d="M15.54,1a1.09,1.09,0,0,0-1.17,1.09v2.6A1.06,1.06,0,0,0,15.55,5.8a1.12,1.12,0,0,0,1.14-1.09V4.42H16v.23a.43.43,0,0,1-.45.48c-.32,0-.43-.21-.43-.49V2.23c0-.32.08-.55.44-.55a.45.45,0,0,1,.44.49v.22h.72V2.13A1.1,1.1,0,0,0,15.54,1"/><polyline class="cls-1" points="19.24 2.94 18.35 2.94 18.35 1.04 17.63 1.04 17.63 5.76 18.35 5.76 18.35 3.54 19.24 3.54 19.24 5.76 19.96 5.76 19.96 1.04 19.24 1.04 19.24 2.94"/><path class="cls-1" d="M23.05,1a1.09,1.09,0,0,0-1.17,1.09v2.6A1.06,1.06,0,0,0,23.06,5.8,1.12,1.12,0,0,0,24.2,4.71V4.42h-.71v.23a.44.44,0,0,1-.45.48c-.33,0-.44-.21-.44-.49V2.23c0-.32.08-.55.44-.55a.45.45,0,0,1,.45.49v.22h.71V2.13A1.1,1.1,0,0,0,23.05,1"/><path class="cls-1" d="M25.9,1,24.78,5.76h.72l.24-1.11h.92l.24,1.11h.72L26.5,1h-.6m0,3,.32-1.56h0L26.52,4Z"/><polyline class="cls-1" points="30.02 3.53 29.01 1.04 28.4 1.04 28.4 5.76 29.1 5.76 29.1 3.17 30.06 5.42 30.93 3.17 30.93 5.76 31.63 5.76 31.63 1.04 31.02 1.04 30.02 3.53"/><path class="cls-1" d="M33.67,1H32.6V5.76h.72v-2h.35a1.38,1.38,0,0,0,1.42-1.34A1.38,1.38,0,0,0,33.67,1m0,2h-.35V1.68h.35a.72.72,0,0,1,.74.7A.72.72,0,0,1,33.67,3.08Z"/><g class="cls-2"><path class="cls-1" d="M0,5.76H6.77L5.64,3.85a.15.15,0,0,0-.15-.07c-.48.07-3.62.44-5.49,2Z"/></g><path class="cls-1" d="M0,5.76A26.1,26.1,0,0,1,5.23,3.37a.08.08,0,0,0,0-.12L3.38,0Z"/></g></g></svg>